<?xml version="1.0" encoding="utf-8"?>
<!-- Generator: Adobe Illustrator 26.3.1, SVG Export Plug-In . SVG Version: 6.00 Build 0)  -->
<svg version="1.1" id="Capa_1" xmlns="http://www.w3.org/2000/svg" xmlns:xlink="http://www.w3.org/1999/xlink" x="0px" y="0px"
	 viewBox="0 0 700 555.4" style="enable-background:new 0 0 700 555.4;" xml:space="preserve">
<g>
	<path d="M572.2,222.2c-21-80.5-85.8-145.2-167.1-165.4S235.4,63,179.4,126c-69.1,77-77.9,192.5-21.9,280
		c-4.4,31.5-7.9,63-12.2,94.5c-1.8,11.4,12.2,19.2,21.9,16.6c30.6-8.8,62.1-16.6,92.8-25.4c83.1,34.1,179.4,18.4,245.9-42.9
		C567.9,392,593.3,302.8,572.2,222.2L572.2,222.2z M511,391.1c-52.5,77-155.8,105.9-240.6,67.4h-0.9c-3.5-1.8-7.9-2.6-13.1-1.8
		c-24.5,7-49,13.1-73.5,20.1c2.6-21,5.2-41.1,7.9-62.1c0.9-7,2.6-14.9-0.9-21.9c-2.6-4.4-6.1-8.8-8.8-14
		c-6.1-10.5-11.4-21.9-15.8-33.2c-14-40.2-14.9-84.9-1.8-125.1c22.8-70.9,87.5-124.2,161-133c76.1-10.5,152.2,26.2,191.6,90.1
		C556.5,243.3,553.9,327.3,511,391.1L511,391.1z"/>
	<path d="M471.6,308.9l-39.4-30.6c-12.2-9.6-28.9-7.9-39.4,2.6l-11.4,11.4c-8.8-5.2-16.6-11.4-24.5-18.4c-7-7-13.1-15.8-18.4-24.5
		L350,238c10.5-10.5,11.4-27.1,2.6-39.4L322,158.4c-6.1-8.8-15.8-14-26.2-14c-10.5-0.9-21,3.5-28,10.5L233.6,189
		c-19.2,19.2-23.6,49-11.4,73.5c16.6,31.5,37.6,59.5,62.1,84s53.4,45.5,84,62.1c9.6,5.2,19.2,7,28.9,7c15.8,0,32.4-6.1,43.8-18.4
		l34.1-34.1c7-7,11.4-17.5,10.5-28C485.6,324.6,480.4,315,471.6,308.9z M450.6,338.6l-34.1,34.1c-8.8,8.8-21.9,10.5-32.4,5.2
		c-28-14.9-53.4-33.2-76.1-56s-41.1-48.1-56-76.1c-5.2-10.5-3.5-23.6,5.2-32.4l34.1-34.1h0.9c0.9,0,0.9,0,0.9,0.9l28,36.8
		l-11.4,10.5c-8.8,8.8-11.4,22.8-5.2,34.1c7,14,16.6,26.2,27.1,36.8s22.8,20.1,36.8,27.1c11.4,6.1,24.5,3.5,33.2-5.2l12.2-12.2
		l35.9,28c0,0,0.9,0,0.9,0.9V338.6z"/>
</g>
</svg>
